<?xml version="1.0" encoding="utf-8"?>
<!-- Generator: Adobe Illustrator 27.4.0, SVG Export Plug-In . SVG Version: 6.00 Build 0)  -->
<svg version="1.1" id="Camada_1" xmlns="http://www.w3.org/2000/svg" xmlns:xlink="http://www.w3.org/1999/xlink" x="0px" y="0px"
	 viewBox="0 0 1080 1080" style="enable-background:new 0 0 1080 1080;" xml:space="preserve">
<style type="text/css">
	.st0{fill:#0C0C0C;}
	.st1{fill-rule:evenodd;clip-rule:evenodd;fill:#C60026;}
</style>
<g>
	<g>
		<path class="st0" d="M458.56,667.07c0,0,22.86-2.29,22.86-32.46V426.57c0-31.1-22.41-32.46-22.41-32.46v-6.4h139.46
			c113.85,0,119.8,154.1,4.13,168.26l49.38,16l56.23,101.5H603.96v-6.4c0,0,27.9-4.56,12.35-35.21l-42.97-74.53h-28.81v80.02
			l-20.59,36.12h-65.38V667.07z M544.53,398.67v145.86h26.97c66.77,0,81.39-145.86,9.6-145.86H544.53z"/>
		<path class="st0" d="M708.21,532.66c0.91-101.98,88.69-146.31,145.38-146.31c62.66,0,139.91,54.39,139,146.31
			c-0.45,94.64-83.2,144.47-146.77,144.47C781.35,677.13,707.76,625.91,708.21,532.66z M885.14,638.72
			c14.64,0,30.17-3.2,46.17-10.06c43.45-82.29-33.37-210.31-120.25-210.31c-12.33,0-24.68,2.72-37.03,8.22
			C731.52,493.34,786.85,638.72,885.14,638.72z M852.23,494.7l35.21,35.21l-35.21,34.76l-34.76-34.76L852.23,494.7z"/>
	</g>
	<g>
		<g>
			<g>
				<path class="st1" d="M296.09,498.07c4.53,22.3-5.44,58.15-19.91,88.29c-37.37,77.62,49.09,116.08,104.84,67.56
					c35.54-30.93,57.02-77.23,57.02-128.06c0-68.38-39.85-127.45-97.57-155.32c37.89,30.62,60.67,69.08,58.76,120.35
					c-9.58-10.11-21.52-16.99-36.28-19.99c43.21,50.87,33.67,108.8,9.23,122.26c-20.43,11.28-44.86-2.05-39.03-40.9
					c11.76,5.79,18.47,16.2,22.39,29.1c13.94-44.25,3.57-76.57-30.1-97.35c12.02-1.7,22.78,1.79,31.97,11.46
					c-6.62-32.1-22.95-56.58-65.86-60.24c5.23-6.05,12.2-10.06,20.82-12.02c-8.32-3.75-17.38-6.14-27.57-6.62
					c-12.2,6.36-23,14.16-32.71,23.17c19.25-29.62,43.56-56.14,72.09-80.06c-53.97,23.56-107.85,58.54-151.75,100.53
					c2.48,36.94-25.61,56.14-24.61,27.27c-29.05,41.95-17.86,71.61,39.03,60.72c-13.07-6.71-5.18-15.99,5.84-14.16
					c9.1,1.48,24.52,2.26,34.37-5.88c-42.42-6.93,7.49-31.84,55.49-22.21c-4.01-12.63-13.07-22.13-25.57-27.35
					C277.14,472.24,292.47,480.34,296.09,498.07L296.09,498.07z M355.15,653.22c-38.11-0.83-56.89-33.93-54.66-76.53
					C280.54,633.44,299.36,668.59,355.15,653.22L355.15,653.22z M190.81,473.46c-1.66,5.1-4.53,9.5-7.62,13.72
					c2.13-6.14,3.62-12.5,3.62-19.34l17.47-14.33l-6.62,17.73L190.81,473.46z"/>
				<path class="st1" d="M207.71,583.61c-101.92,17.07-122.35-104.71-68.04-180.8C59.27,490.97,70.6,609.4,180.75,636.93
					c-14.81,9.54-31.4,12.89-51.92,2.53c31.58,37.98,79.23,62.16,132.54,62.16c15.16,0,29.92-1.96,43.95-5.62
					c-46.91,0.87-100.83-40.51-39.9-136.51c13.42-21.12,6.4-48.39-28.4-41.99c29.23,27.35-18.25,63.03-46.65,42.12
					C189.55,569.68,195,577.78,207.71,583.61L207.71,583.61z"/>
				<path class="st1" d="M256.71,349.67c-25.7,22.34-42.9,47.08-55.1,73.35c16.25-13.72,33.5-25.57,51.88-35.32l-13.46-0.7
					C243.69,373.5,249.83,361.39,256.71,349.67L256.71,349.67z"/>
			</g>
		</g>
	</g>
</g>
</svg>
