<?xml version="1.0" encoding="utf-8"?>
<!-- Generator: Adobe Illustrator 27.9.0, SVG Export Plug-In . SVG Version: 6.00 Build 0)  -->
<svg version="1.1" id="Camada_1" xmlns="http://www.w3.org/2000/svg" xmlns:xlink="http://www.w3.org/1999/xlink" x="0px" y="0px"
	 viewBox="0 0 1080 134.23" style="enable-background:new 0 0 1080 134.23;" xml:space="preserve">
<style type="text/css">
	.st0{fill:#C60026;}
</style>
<g>
	<g>
		<path class="st0" d="M77.3,115.72c0,0,7.57-0.76,7.57-10.75v-68.9c0-10.3-7.42-10.75-7.42-10.75V23.2h46.19
			c37.7,0,39.67,51.04,1.37,55.73l16.35,5.3l18.62,33.61h-34.52v-2.12c0,0,9.24-1.51,4.09-11.66l-14.23-24.68h-9.54v26.5
			l-6.82,11.96H77.3V115.72z M105.77,26.83v48.31h8.93c22.11,0,26.95-48.31,3.18-48.31H105.77z"/>
		<path class="st0" d="M205.24,49.55c23.16,0,32.1,15.29,32.1,23.01h-50.42c-0.46,2.42-0.61,5-0.46,7.87
			c0.46,13.63,12.72,24.68,28.16,25.14c6.82,0.15,15.14-2.28,19.84-8.18l1.97,2.27c-6.97,12.87-21.96,19.08-35.89,19.08
			c-19.53,0-35.89-13.78-36.04-33.77C164.35,63.94,182.98,49.55,205.24,49.55z M217.35,67.57c0,0-0.91-14.99-12.26-14.99
			c-8.79,0-14.84,5.76-17.42,14.99H217.35z"/>
		<path class="st0" d="M241.86,50.46h28.47v54.52c0,6.66,2.57,10.3,7.57,10.75v2.12h-28.47V63.33c0-6.66-2.57-10.29-7.57-10.75
			V50.46z M244.89,28.35l13.47-13.48l13.48,13.48l-13.48,13.47L244.89,28.35z"/>
		<path class="st0" d="M282.42,117.84v-2.12c0,0,7.57-0.61,7.57-10.75V63.33c0-6.81-2.58-10.29-7.57-10.75v-2.12h19.53l6.36,8.18
			l1.06,6.66c2.72-4.69,8.63-15.44,22.1-15.44c13.18,0,22.87,9.23,22.87,27.25v27.86c0,6.81,2.57,10.3,7.57,10.75v2.12H333.6V76.96
			c0-12.72-2.27-19.08-8.93-19.08c-6.96,0-11.66,8.03-13.93,12.87v34.98l8.93,12.11H282.42z"/>
		<path class="st0" d="M366.44,85.29c0-25.14,22.1-35.73,37.1-35.73c15.29,0,34.83,11.5,34.83,33.61
			c0,24.53-20.44,36.19-37.25,36.19C385.36,119.36,366.44,108.76,366.44,85.29z M409.6,111.78c2.12,0,4.39-0.45,6.66-1.36
			c11.66-17.11-2.72-53.15-20.89-53.15c-1.82,0-3.49,0.3-5.3,1.06C378.85,72.12,389.6,111.78,409.6,111.78z"/>
		<path class="st0" d="M442.89,69.69c0-13.02,14.83-20.13,26.64-20.13c6.82,0,13.33,1.36,19.84,3.33l8.48-3.49l-0.15,28.47
			l-25.44-24.68c-7.27-1.82-14.38,2.12-14.38,7.57c0,16.2,43,16.05,43,38.61c0,10.75-10.44,19.53-26.79,19.53
			c-8.03,0-16.2-2.12-22.11-3.94l-8.33,2.73V90.13l25.29,23.92c1.97,0.46,3.63,0.61,5.3,0.61c6.96,0,11.05-3.78,11.05-8.63
			C485.29,93.01,442.89,95.13,442.89,69.69z"/>
	</g>
	<g>
		<path class="st0" d="M517.63,71.21c0.3-33.77,29.37-48.46,48.15-48.46c20.75,0,46.34,18.01,46.04,48.46
			c-0.15,31.34-27.55,47.85-48.61,47.85C541.86,119.05,517.48,102.09,517.63,71.21z M576.23,106.33c4.85,0,9.99-1.06,15.29-3.33
			c14.39-27.25-11.05-69.65-39.83-69.65c-4.08,0-8.17,0.9-12.26,2.72C525.36,58.19,543.68,106.33,576.23,106.33z M565.33,58.64
			l11.66,11.66l-11.66,11.51L553.82,70.3L565.33,58.64z"/>
		<path class="st0" d="M657.66,49.86c5.9,0,13.02,1.51,18.32,2.42l6.66-2.57V75.6l-17.11-21.65c-2.27-0.91-6.81-1.37-8.02-1.37
			c-28.16,0.16-27.71,52.1,6.66,52.1c7.57,0,15.75-1.97,19.53-7.27l1.82,2.27c-6.66,13.02-20.59,19.08-32.25,19.08
			c-15.9-0.15-36.8-9.69-36.8-33.16C616.47,62.58,637.37,49.86,657.66,49.86z"/>
		<path class="st0" d="M718.49,50.46v38.01c0,12.72,1.06,22.86,9.84,22.86c6.51,0,10.3-6.66,13.02-11.05V63.33
			c0-6.81-2.57-10.29-7.57-10.75v-2.12h28.32v54.37c0,6.81,2.57,10.45,7.57,10.75v2.12h-19.54l-6.96-8.63
			c-0.15-0.3-0.45-2.73-0.76-3.03c-2.57,4.39-8.63,11.81-19.68,11.81c-15.44,0-25.13-13.02-25.13-29.07V63.33
			c0-6.81-2.43-10.29-7.42-10.75v-2.12H718.49z"/>
		<path class="st0" d="M802.64,22.44v82.53c0,6.66,2.58,10.3,7.57,10.75v2.12H781.9V35.16c0-6.66-2.58-10.14-7.57-10.6v-2.12H802.64
			z"/>
		<path class="st0" d="M814.87,54.4v-3.94h1.67c9.23-0.75,13.17-7.72,13.17-13.32c0-5.15-1.97-7.87-4.85-7.87v-1.97h20.29
			c5.15,12.57-6.05,21.35-14.53,23.16h31.8v3.94h-16.35v38.16c0,13.77,2.72,19.53,7.27,21.49c0.15,0,8.93-16.65,8.93-16.65
			l1.21,20.44h-14.08c-10.29,0-24.22-4.84-24.22-25.28V54.4H814.87z"/>
		<path class="st0" d="M868.13,85.29c0-25.14,22.1-35.73,37.1-35.73c15.29,0,34.83,11.5,34.83,33.61
			c0,24.53-20.44,36.19-37.25,36.19C887.05,119.36,868.13,108.76,868.13,85.29z M911.28,111.78c2.12,0,4.39-0.45,6.66-1.36
			c11.66-17.11-2.72-53.15-20.89-53.15c-1.82,0-3.49,0.3-5.3,1.06C880.54,72.12,891.29,111.78,911.28,111.78z"/>
		<path class="st0" d="M944.71,69.69c0-13.02,14.83-20.13,26.64-20.13c6.82,0,13.33,1.36,19.84,3.33l8.48-3.49l-0.15,28.47
			l-25.44-24.68c-7.27-1.82-14.38,2.12-14.38,7.57c0,16.2,43,16.05,43,38.61c0,10.75-10.44,19.53-26.79,19.53
			c-8.03,0-16.2-2.12-22.11-3.94l-8.33,2.73V90.13l25.29,23.92c1.97,0.46,3.63,0.61,5.3,0.61c6.96,0,11.05-3.78,11.05-8.63
			C987.11,93.01,944.71,95.13,944.71,69.69z"/>
	</g>
</g>
</svg>
