<?xml version="1.0" encoding="utf-8"?>
<!-- Generator: Adobe Illustrator 27.9.0, SVG Export Plug-In . SVG Version: 6.00 Build 0)  -->
<svg version="1.1" id="Camada_1" xmlns="http://www.w3.org/2000/svg" xmlns:xlink="http://www.w3.org/1999/xlink" x="0px" y="0px"
	 viewBox="0 0 1080 1080" style="enable-background:new 0 0 1080 1080;" xml:space="preserve">
<style type="text/css">
	.st0{fill-rule:evenodd;clip-rule:evenodd;fill:#C60026;}
</style>
<g>
	<g>
		<path class="st0" d="M635.8,460.84c13.01,64.03-15.63,166.94-57.15,253.48c-107.29,222.84,140.93,333.26,300.99,193.95
			c102.04-88.79,163.69-221.71,163.69-367.65c0-196.33-114.42-365.9-280.11-445.93c108.79,87.91,174.19,198.33,168.69,345.51
			c-27.51-29.01-61.77-48.77-104.17-57.4c124.05,146.06,96.66,312.37,26.51,351.01c-58.65,32.39-128.8-5.88-112.04-117.42
			c33.76,16.63,53.02,46.52,64.28,83.53c40.02-127.05,10.25-219.84-86.41-279.49c34.51-4.88,65.4,5.13,91.79,32.89
			c-19.01-92.16-65.9-162.44-189.08-172.94c15.01-17.38,35.01-28.89,59.77-34.51c-23.88-10.75-49.9-17.63-79.16-19.01
			c-35.01,18.26-66.03,40.64-93.91,66.53c55.27-85.03,125.05-161.19,206.96-229.84c-154.94,67.65-309.62,168.07-435.67,288.61
			c7.13,106.04-73.53,161.19-70.65,78.28c-83.41,120.42-51.27,205.58,112.04,174.32c-37.51-19.26-14.88-45.89,16.76-40.64
			c26.14,4.25,70.4,6.5,98.66-16.88c-121.8-19.88,21.51-91.41,159.31-63.78c-11.5-36.26-37.51-63.53-73.4-78.53
			C581.4,386.69,625.42,409.95,635.8,460.84L635.8,460.84z M805.37,906.27c-109.42-2.38-163.31-97.41-156.94-219.71
			C591.16,849.5,645.18,950.41,805.37,906.27L805.37,906.27z M333.55,390.19c-4.75,14.63-13.01,27.26-21.88,39.39
			c6.13-17.63,10.38-35.89,10.38-55.52l50.15-41.14l-19.01,50.9L333.55,390.19z"/>
		<path class="st0" d="M382.07,706.44C89.46,755.46,30.81,405.82,186.75,187.36C-44.1,440.46-11.58,780.47,304.67,859.5
			c-42.52,27.39-90.16,37.01-149.06,7.25c90.66,109.04,227.47,178.45,380.53,178.45c43.52,0,85.91-5.63,126.18-16.13
			c-134.68,2.5-289.49-116.3-114.55-391.91c38.52-60.65,18.38-138.93-81.53-120.55c83.91,78.53-52.4,180.95-133.93,120.92
			C329.93,666.43,345.56,689.68,382.07,706.44L382.07,706.44z"/>
		<path class="st0" d="M522.75,34.8c-73.78,64.15-123.17,135.18-158.19,210.58c46.64-39.39,96.16-73.4,148.93-101.42l-38.64-2
			C485.36,103.2,503,68.44,522.75,34.8L522.75,34.8z"/>
	</g>
</g>
</svg>
